<?xml version="1.0" encoding="UTF-8" standalone="no"?>
<!-- Created with Inkscape (http://www.inkscape.org/) -->

<svg
   width="134.72356mm"
   height="147.09389mm"
   viewBox="0 0 134.72356 147.09389"
   version="1.1"
   id="svg1"
   xml:space="preserve"
   xmlns="http://www.w3.org/2000/svg"
   xmlns:svg="http://www.w3.org/2000/svg"><defs
     id="defs1" /><g
     id="layer2"
     transform="translate(-37.645763,-86.484655)"><path
       id="rect1"
       style="display:inline;fill:#000000;fill-opacity:1;stroke-width:0.250057"
       d="M 51.609253,93.629427 A 13.963356,13.963356 0 0 0 37.645764,107.59292 v 111.82366 a 14.161937,14.161937 0 0 0 14.161926,14.16193 h 106.12065 a 14.441122,14.441122 0 0 0 14.44098,-14.44098 v -111.5627 a 13.945637,13.945637 0 0 0 -13.9454,-13.945403 h -11.19415 v 2.455664 h 11.12129 a 11.579097,11.579097 0 0 1 11.57914,11.579139 v 13.3413 H 40.051819 V 107.62134 A 11.536442,11.536442 0 0 1 51.588066,96.085091 h 11.103198 v -2.455664 z m 16.624825,0 v 2.455664 H 141.68696 V 93.629427 Z M 40.051819,123.45293 H 169.9302 v 96.04995 a 11.620119,11.620119 0 0 1 -11.61997,11.61996 H 51.686768 A 11.63509,11.63509 0 0 1 40.051819,219.48789 Z" /></g><g
     id="layer4"
     transform="translate(-37.645763,-86.484655)"><path
       id="path15-1"
       style="stroke-width:0.271809"
       d="m 149.64949,102.10122 v 0.11111 c 0,1.07786 0.0512,2.75643 -0.33744,3.95635 a 4.8617182,4.882297 0 0 1 0.1974,1.37769 4.8617182,4.882297 0 0 1 -4.86172,4.88239 4.8617182,4.882297 0 0 1 -4.86172,-4.88239 4.8617182,4.882297 0 0 1 0.0868,-0.91983 c -0.54218,-1.21157 -0.55003,-2.97531 -0.54364,-4.28037 a 7.3573551,7.3959312 0 0 0 -2.07326,5.14647 7.3573551,7.3959312 0 0 0 7.35717,7.39592 7.3573551,7.3959312 0 0 0 7.3577,-7.39592 7.3573551,7.3959312 0 0 0 -2.32131,-5.39141 z" /><path
       id="path15"
       style="opacity:1;stroke-width:0.271809"
       d="m 70.651501,102.08317 v 0.11111 c 0,1.07786 0.05123,2.75643 -0.337447,3.95635 a 4.8617182,4.882297 0 0 1 0.197404,1.37769 4.8617182,4.882297 0 0 1 -4.861718,4.88239 4.8617182,4.882297 0 0 1 -4.861719,-4.88239 4.8617182,4.882297 0 0 1 0.08682,-0.91984 c -0.542178,-1.21156 -0.550026,-2.97531 -0.543636,-4.28036 a 7.3573551,7.3959312 0 0 0 -2.073258,5.14646 7.3573551,7.3959312 0 0 0 7.357173,7.39593 7.3573551,7.3959312 0 0 0 7.357691,-7.39593 7.3573551,7.3959312 0 0 0 -2.321306,-5.39141 z" /></g><g
     id="layer3"
     transform="translate(-37.645763,-86.484655)"><path
       id="path16-9"
       style="stroke-width:0.275187"
       d="m 144.41106,86.502699 c -1.67336,0 -3.1528,0.755115 -4.07728,1.925463 -1.12539,1.424709 -1.00252,4.199619 -1.00252,5.846155 v 7.545783 c 0,0.1642 -10e-4,0.3404 -0.002,0.52607 -0.007,1.49331 0.004,3.58719 0.81339,4.76716 0.90326,1.31735 2.47418,2.18591 4.26847,2.18591 h 0.15865 c 1.95266,0 3.64135,-1.02878 4.49223,-2.54506 0.65834,-1.17316 0.58756,-3.27349 0.58756,-4.54184 v -0.11111 -10.808126 c 0,-2.653894 -2.26553,-4.790405 -5.07979,-4.790405 z m 0.0103,2.337841 h 0.15192 a 2.6595691,2.7581899 0 0 1 2.65979,2.757972 v 8.982908 3.58376 a 2.6715847,2.7706511 0 0 1 -2.67167,2.77037 h -0.0589 a 2.815744,2.920156 0 0 1 -2.81533,-2.92023 v -3.30833 -9.030964 a 2.7344588,2.8358565 0 0 1 2.7342,-2.835486 z" /><path
       id="path16"
       style="stroke-width:0.275187"
       d="m 65.413062,86.484644 c -1.673354,0 -3.152795,0.755115 -4.077271,1.925463 -1.125391,1.424709 -1.002523,4.199619 -1.002523,5.846155 v 7.545788 c 0,0.1642 -0.0012,0.3404 -0.0021,0.52607 -0.0073,1.4933 0.0043,3.58718 0.813387,4.76715 0.903263,1.31735 2.474185,2.18591 4.268474,2.18591 h 0.158646 c 1.952662,0 3.64135,-1.02878 4.492232,-2.54506 0.658336,-1.17316 0.587561,-3.27348 0.587561,-4.54184 v -0.11111 -10.808121 c 0,-2.653894 -2.265536,-4.790405 -5.079793,-4.790405 z m 0.01033,2.337841 h 0.151929 a 2.6595691,2.7581899 0 0 1 2.659785,2.757972 v 8.982913 3.58376 a 2.6715847,2.7706511 0 0 1 -2.671671,2.77037 h -0.05891 a 2.815744,2.920156 0 0 1 -2.815332,-2.92023 v -3.30833 -9.030969 a 2.7344588,2.8358565 0 0 1 2.734199,-2.835486 z" /></g><g
     id="layer5"
     style="opacity:1"
     transform="translate(-37.645763,-86.484655)"><path
       id="rect18"
       style="opacity:1;fill:#000000;fill-opacity:1;stroke-width:0.282037"
       d="m 105.46849,150.61827 c -0.1054,0.17178 -0.53648,0.86869 -0.80615,1.21233 -0.44663,0.56915 -1.45053,1.57892 -1.5229,1.65158 v 0.009 c -0.53262,0.51208 -1.28284,1.22027 -1.78181,1.63556 -1.02533,0.8534 -2.082209,1.67896 -3.214793,2.38383 -1.112519,0.69238 -2.296719,1.26946 -3.495394,1.79886 -1.061179,0.46867 -3.2613,1.21439 -3.2613,1.21439 l 0.0098,8.58552 c 0,0 2.151222,-0.44595 3.191019,-0.79271 1.079697,-0.36006 2.124838,-0.82505 3.144511,-1.33067 1.009881,-0.50077 1.991958,-1.06229 2.934187,-1.68103 0.72784,-0.47795 1.94292,-1.4209 2.47376,-1.83762 v 35.52858 h 9.89035 v -48.37741 z" /></g></svg>
