<?xml version="1.0" encoding="UTF-8" standalone="no"?>
<!-- Created with Inkscape (http://www.inkscape.org/) -->

<svg
   width="111.48363mm"
   height="133.43735mm"
   viewBox="0 0 111.48363 133.43735"
   version="1.1"
   id="svg1"
   xml:space="preserve"
   sodipodi:docname="form.svg"
   inkscape:version="1.4.2 (ebf0e940, 2025-05-08)"
   xmlns:inkscape="http://www.inkscape.org/namespaces/inkscape"
   xmlns:sodipodi="http://sodipodi.sourceforge.net/DTD/sodipodi-0.dtd"
   xmlns="http://www.w3.org/2000/svg"
   xmlns:svg="http://www.w3.org/2000/svg"><sodipodi:namedview
     id="namedview1"
     pagecolor="#ffffff"
     bordercolor="#000000"
     borderopacity="0.25"
     inkscape:showpageshadow="2"
     inkscape:pageopacity="0.0"
     inkscape:pagecheckerboard="0"
     inkscape:deskcolor="#d1d1d1"
     inkscape:document-units="mm"
     inkscape:zoom="1.4823793"
     inkscape:cx="471.87652"
     inkscape:cy="622.31034"
     inkscape:window-width="1792"
     inkscape:window-height="982"
     inkscape:window-x="0"
     inkscape:window-y="25"
     inkscape:window-maximized="1"
     inkscape:current-layer="svg1"><inkscape:page
       x="0"
       y="0"
       width="111.48363"
       height="133.43735"
       id="page2"
       margin="0"
       bleed="0" /></sodipodi:namedview><defs
     id="defs1" /><path
     id="path5"
     style="display:inline;opacity:1;fill:#000000;stroke-width:0.283656"
     d="M 14.592912,6.4715758e-7 A 14.593133,14.593133 0 0 0 3.716435e-6,14.592909 V 118.69353 A 14.74395,14.74395 0 0 0 14.743807,133.43734 H 96.739836 A 14.74395,14.74395 0 0 0 111.48363,118.69353 V 19.995679 a 4.4817101,4.4817101 0 0 0 -1.44745,-3.29851 L 93.344696,1.3420376 A 5.0825396,5.0825396 0 0 0 89.903556,6.4715758e-7 Z M 14.504032,4.7041066 H 89.97488 a 0.68924088,0.68924088 0 0 1 0.68936,0.689364 v 9.2376784 c -9e-5,2.61675 2.13655,4.73811 4.77232,4.73821 h 10.48411 a 0.78067919,0.78067919 0 0 1 0.78084,0.78083 v 98.783121 a 9.7121995,9.7121995 0 0 1 -9.71207,9.71207 H 14.504028 A 9.7121995,9.7121995 0 0 1 4.7919587,118.93331 V 14.416179 A 9.7121995,9.7121995 0 0 1 14.504028,4.7041066 Z m 23.49159,16.3070124 v 7.57422 H 73.50095 v -7.57422 z m -7.804696,10.22677 v 2.54868 h 51.20979 v -2.54868 z m -13.967623,11.10733 v 11.47475 h 79.062873 v -11.47475 z m 0.05116,14.67146 v 2.51819 h 54.019443 v -2.51819 z m -0.08733,13.24932 v 11.47475 h 79.062876 v -11.47475 z m 4.782653,25.61756 v 16.257401 h 16.5933 V 95.883559 Z m 2.633948,2.63084 H 35.030427 V 109.5251 H 23.603731 Z m 21.723739,3.874701 v 2.49597 h 46.470543 v -2.49597 z"
     inkscape:label="full_form" /></svg>
