<?xml version="1.0" encoding="UTF-8" standalone="no"?>
<!-- Created with Inkscape (http://www.inkscape.org/) -->

<svg
   width="114.46096mm"
   height="108.60723mm"
   viewBox="0 0 114.46096 108.60723"
   version="1.1"
   id="svg1"
   xml:space="preserve"
   inkscape:version="1.4.2 (ebf0e940, 2025-05-08)"
   sodipodi:docname="List_Minimal.svg"
   xmlns:inkscape="http://www.inkscape.org/namespaces/inkscape"
   xmlns:sodipodi="http://sodipodi.sourceforge.net/DTD/sodipodi-0.dtd"
   xmlns="http://www.w3.org/2000/svg"
   xmlns:svg="http://www.w3.org/2000/svg"><sodipodi:namedview
     id="namedview1"
     pagecolor="#ffffff"
     bordercolor="#000000"
     borderopacity="0.25"
     inkscape:showpageshadow="2"
     inkscape:pageopacity="0.0"
     inkscape:pagecheckerboard="0"
     inkscape:deskcolor="#d1d1d1"
     inkscape:document-units="mm"
     showgrid="true"
     inkscape:zoom="0.52410024"
     inkscape:cx="594.35195"
     inkscape:cy="476.05397"
     inkscape:window-width="1792"
     inkscape:window-height="982"
     inkscape:window-x="0"
     inkscape:window-y="25"
     inkscape:window-maximized="1"
     inkscape:current-layer="layer2"><inkscape:grid
       id="grid5"
       units="mm"
       originx="-47.753155"
       originy="-65.610038"
       spacingx="1"
       spacingy="1"
       empcolor="#0099e5"
       empopacity="0.30196078"
       color="#0099e5"
       opacity="0.14901961"
       empspacing="5"
       enabled="true"
       visible="true"
       dotted="false" /><inkscape:page
       x="-3.1424692e-13"
       y="-1.6399911e-14"
       width="114.46097"
       height="108.60724"
       id="page2"
       margin="0"
       bleed="0" /></sodipodi:namedview><defs
     id="defs1"><inkscape:path-effect
       effect="fillet_chamfer"
       id="path-effect12"
       is_visible="true"
       lpeversion="1"
       nodesatellites_param="F,0,0,1,0,4.3336548,0,1 @ F,0,0,1,0,4.2736457,0,1 @ F,0,0,1,0,4.3565305,0,1 @ F,0,0,1,0,4.3845754,0,1"
       radius="0"
       unit="px"
       method="auto"
       mode="F"
       chamfer_steps="1"
       flexible="false"
       use_knot_distance="true"
       apply_no_radius="true"
       apply_with_radius="true"
       only_selected="false"
       hide_knots="false" /><inkscape:path-effect
       effect="fillet_chamfer"
       id="path-effect10"
       is_visible="true"
       lpeversion="1"
       nodesatellites_param="F,0,0,1,0,17.484306,0,1 @ F,0,1,1,0,17.630072,0,1 @ F,0,0,1,0,17.554181,0,1 @ F,0,0,1,0,17.630072,0,1 | F,0,0,1,0,12.49391,0,1 @ F,0,0,1,0,11.93092,0,1 @ F,0,0,1,0,11.71939,0,1 @ F,0,0,1,0,11.986559,0,1"
       radius="0"
       unit="px"
       method="auto"
       mode="F"
       chamfer_steps="1"
       flexible="false"
       use_knot_distance="true"
       apply_no_radius="true"
       apply_with_radius="true"
       only_selected="false"
       hide_knots="false" /><linearGradient
       id="swatch6"
       inkscape:swatch="solid"><stop
         style="stop-color:#b6b6b6;stop-opacity:1;"
         offset="0"
         id="stop6" /></linearGradient><inkscape:path-effect
       effect="fillet_chamfer"
       id="path-effect12-1"
       is_visible="true"
       lpeversion="1"
       nodesatellites_param="F,0,0,1,0,4.3336548,0,1 @ F,0,0,1,0,4.2736457,0,1 @ F,0,0,1,0,4.3565305,0,1 @ F,0,0,1,0,4.3845754,0,1"
       radius="0"
       unit="px"
       method="auto"
       mode="F"
       chamfer_steps="1"
       flexible="false"
       use_knot_distance="true"
       apply_no_radius="true"
       apply_with_radius="true"
       only_selected="false"
       hide_knots="false" /><inkscape:path-effect
       effect="fillet_chamfer"
       id="path-effect12-5"
       is_visible="true"
       lpeversion="1"
       nodesatellites_param="F,0,0,1,0,4.3336548,0,1 @ F,0,0,1,0,4.2736457,0,1 @ F,0,0,1,0,4.3565305,0,1 @ F,0,0,1,0,4.3845754,0,1"
       radius="0"
       unit="px"
       method="auto"
       mode="F"
       chamfer_steps="1"
       flexible="false"
       use_knot_distance="true"
       apply_no_radius="true"
       apply_with_radius="true"
       only_selected="false"
       hide_knots="false" /></defs><g
     inkscape:groupmode="layer"
     id="layer6"
     inkscape:label="List"
     transform="translate(-47.753152,-65.610036)"><g
       inkscape:groupmode="layer"
       id="layer2"
       inkscape:label="Paper"
       style="display:inline"
       sodipodi:insensitive="true"><path
         id="rect8"
         style="fill:#000000;fill-opacity:1;stroke-width:0.258858;stroke-dasharray:none"
         d="M 47.753158,83.345581 V 156.5872 a 17.630072,17.630072 45 0 0 17.630072,17.63007 h 79.32762 a 17.503279,17.503279 134.91681 0 0 17.5032,-17.55411 L 162.00071,83.194235 A 17.635411,17.635411 44.842293 0 0 144.3195,65.610095 L 65.237405,65.815796 A 17.529844,17.529844 134.92548 0 0 47.753158,83.345581 Z M 65.236391,70.746292 145.25644,70.93968 a 11.969567,11.969567 45.045822 0 1 11.94064,11.95975 l 0.0607,74.23732 a 11.744882,11.744882 134.89093 0 1 -11.70976,11.75443 l -80.755864,0.24147 A 11.958434,11.958434 44.895978 0 1 52.797938,157.18193 L 52.750525,83.210004 A 12.455766,12.455766 135.05087 0 1 65.236391,70.746292 Z"
         sodipodi:nodetypes="cccccccccc"
         inkscape:original-d="M 47.753158,65.861275 V 174.21727 H 162.26503 L 161.94951,65.564237 Z m 4.989359,4.854822 104.444813,0.252417 0.08,97.887626 -104.461709,0.31235 z"
         inkscape:path-effect="#path-effect10" /></g><g
       inkscape:groupmode="layer"
       id="layer3"
       inkscape:label="Dots"
       style="display:inline"
       sodipodi:insensitive="true"><ellipse
         style="fill:#000000;fill-opacity:1;stroke-width:0.268898;stroke-dasharray:none"
         id="path10"
         cx="72.167519"
         cy="92.834129"
         rx="7.0755558"
         ry="7.1071086" /><ellipse
         style="fill:#000000;fill-opacity:1;stroke-width:0.268898;stroke-dasharray:none"
         id="path10-5"
         cx="72.161446"
         cy="120.5797"
         rx="7.0755558"
         ry="7.1071086" /><ellipse
         style="fill:#000000;fill-opacity:1;stroke-width:0.268898;stroke-dasharray:none"
         id="path10-55"
         cx="72.15789"
         cy="148.45874"
         rx="7.0755558"
         ry="7.1071086" /></g><g
       inkscape:groupmode="layer"
       id="layer4"
       inkscape:label="Lines"
       style="display:inline"
       sodipodi:insensitive="true"><path
         style="fill:#000000;fill-opacity:1;stroke-width:0.250806;stroke-dasharray:none"
         id="rect10"
         width="56.60445"
         height="8.8179598"
         x="88.282745"
         y="88.629547"
         sodipodi:type="rect"
         transform="matrix(0.99211698,0,0,1,1.1421485,0)"
         inkscape:path-effect="#path-effect12"
         d="m 92.6164,88.629547 h 47.99715 a 4.2736457,4.2736457 45 0 1 4.27365,4.273646 v 0.187783 a 4.3565305,4.3565305 135 0 1 -4.35653,4.356531 H 92.667321 a 4.3845754,4.3845754 45 0 1 -4.384576,-4.384575 v -0.09973 A 4.3336548,4.3336548 135 0 1 92.6164,88.629547 Z" /><path
         style="fill:#000000;fill-opacity:1;stroke-width:0.250806;stroke-dasharray:none"
         id="rect10-7"
         width="56.60445"
         height="8.8179598"
         x="88.282745"
         y="88.629547"
         sodipodi:type="rect"
         transform="matrix(0.99211698,0,0,1,1.1226596,27.797136)"
         inkscape:path-effect="#path-effect12-1"
         d="m 92.6164,88.629547 h 47.99715 a 4.2736457,4.2736457 45 0 1 4.27365,4.273646 v 0.187783 a 4.3565305,4.3565305 135 0 1 -4.35653,4.356531 H 92.667321 a 4.3845754,4.3845754 45 0 1 -4.384576,-4.384575 v -0.09973 A 4.3336548,4.3336548 135 0 1 92.6164,88.629547 Z" /><path
         style="fill:#000000;fill-opacity:1;stroke-width:0.250806;stroke-dasharray:none"
         id="rect10-1"
         width="56.60445"
         height="8.8179598"
         x="88.282745"
         y="88.629547"
         sodipodi:type="rect"
         transform="matrix(0.99211698,0,0,1,1.0844867,55.449238)"
         inkscape:path-effect="#path-effect12-5"
         d="m 92.6164,88.629547 h 47.99715 a 4.2736457,4.2736457 45 0 1 4.27365,4.273646 v 0.187783 a 4.3565305,4.3565305 135 0 1 -4.35653,4.356531 H 92.667321 a 4.3845754,4.3845754 45 0 1 -4.384576,-4.384575 v -0.09973 A 4.3336548,4.3336548 135 0 1 92.6164,88.629547 Z"
         inkscape:export-filename="List_Minimal_Export.svg"
         inkscape:export-xdpi="96"
         inkscape:export-ydpi="96" /></g></g></svg>
